<svg width="219" height="48" xmlns="http://www.w3.org/2000/svg"><g fill="none" fill-rule="evenodd"><ellipse fill="#82D318" cx="54.076" cy="23.97" rx="23.951" ry="23.97"/><path d="M57.307 23.544l-1.12-1.666a37.921 37.921 0 0 0-6.927-7.438 27.674 27.674 0 0 0-15.756-6.585 28.711 28.711 0 0 0-20.215 7.08 37.45 37.45 0 0 0-4.658 4.642c-.01.01-.02.02-.03.02-.089.06-.218.04-.277-.05a40.241 40.241 0 0 1-3.736-8.916l-.01-.05a2.482 2.482 0 0 0-1.427-1.417 2.062 2.062 0 0 0-1.694.05 2.643 2.643 0 0 0-1.328 2.855l.01.03a44.698 44.698 0 0 0 5.073 11.554.574.574 0 0 1 0 .615A45.438 45.438 0 0 0 .12 35.85l-.01.05v.05c0 1.03.595 1.963 1.526 2.39.278.119.585.188.882.198a2.47 2.47 0 0 0 2.002-1.11l.03-.05.02-.05a40.034 40.034 0 0 1 3.745-8.946c.01-.01.01-.02.02-.03.08-.079.208-.079.287 0a37.611 37.611 0 0 0 4.658 4.662 29.16 29.16 0 0 0 18.52 7.14c.556 0 1.12-.02 1.685-.06a27.58 27.58 0 0 0 15.756-6.584 37.892 37.892 0 0 0 6.917-7.438l1.11-1.666a.703.703 0 0 0 .04-.863zm-5.827.863c-2.765 3.47-9.157 10.056-18.244 10.68-8.026.556-15.934-3.63-21.652-10.75a.568.568 0 0 1 0-.714c5.718-7.13 13.626-11.306 21.643-10.77 9.096.635 15.498 7.24 18.253 10.71a.672.672 0 0 1 0 .844z" fill="#000" fill-rule="nonzero"/><path d="M42.77 21.5a2.478 2.478 0 0 1 2.17 2.758 2.477 2.477 0 0 1-2.755 2.172 2.486 2.486 0 0 1-2.19-2.47 2.49 2.49 0 0 1 2.487-2.489c.09.02.188.02.287.03z" fill="#000"/><g fill="#000"><path d="M185.169 14.192c.694 0 1.278-.199 1.714-.595.446-.407.674-.933.674-1.577 0-.645-.228-1.17-.674-1.567-.436-.387-1.01-.585-1.714-.585-.714 0-1.298.198-1.724.585-.436.397-.654.922-.654 1.567 0 .644.218 1.18.654 1.577.426.396 1.01.595 1.724.595z"/><path d="M185.347 16.73h-8.393v-.485c0-.873.188-1.547.575-1.994.376-.436 1-.704 1.853-.773l.654-.06c.456-.04.822-.198 1.1-.476.277-.278.416-.654.416-1.14 0-.695-.307-1.528-1.764-1.528-.208 0-.367.01-.456.03l-.683.06c-1.814.158-3.25.803-4.252 1.914-1 1.1-1.506 2.598-1.516 4.453h-1.278c-1.526 0-1.853.862-1.853 1.586 0 .724.317 1.587 1.853 1.587h1.278v9.898c0 .634.198 1.12.605 1.448.386.327.882.486 1.456.486.575 0 1.06-.17 1.447-.496.387-.338.585-.823.585-1.448v-9.898h6.154v9.898c0 .625.198 1.12.604 1.468.387.337.882.505 1.457.505.575 0 1.06-.168 1.447-.505.386-.348.584-.834.584-1.468V18.317c-.02-.724-.347-1.586-1.873-1.586zM201.886 25.051c-.347-.565-.911-1.031-1.694-1.408-.763-.357-1.814-.684-3.151-.962-1.22-.248-2.042-.506-2.458-.744-.377-.218-.555-.535-.555-.952 0-.446.178-.793.555-1.051.386-.268.931-.407 1.615-.407.585 0 1.08.07 1.477.209.406.138.892.366 1.447.654.317.179.584.317.802.407.228.099.466.148.714.148.376 0 .693-.158.951-.476.248-.297.367-.674.367-1.11 0-.724-.347-1.3-1.04-1.736a7.61 7.61 0 0 0-2.121-.932 9.52 9.52 0 0 0-2.448-.317c-1.17 0-2.22.198-3.141.595-.922.396-1.665.962-2.2 1.695a4.09 4.09 0 0 0-.803 2.47c0 1.2.406 2.152 1.209 2.846.783.675 2.08 1.19 3.855 1.547.97.218 1.704.407 2.18.575.446.16.763.328.931.496.149.159.228.377.228.665 0 .426-.198.744-.594.982-.426.257-1.05.386-1.834.386-.782 0-1.436-.079-1.942-.228a13.142 13.142 0 0 1-1.694-.664c-.625-.337-1.11-.496-1.487-.496-.376 0-.693.149-.941.436-.248.278-.377.645-.377 1.091 0 .764.347 1.359 1.04 1.766 1.348.862 3.132 1.299 5.312 1.299 1.883 0 3.419-.417 4.569-1.25 1.159-.843 1.753-1.983 1.753-3.382-.01-.863-.188-1.586-.525-2.152zM213.52 16.374c-1.07 0-2.041.208-2.884.624a5.04 5.04 0 0 0-1.684 1.33V12.03c0-.566-.189-1.032-.565-1.359-.367-.327-.862-.496-1.457-.496-.604 0-1.1.179-1.476.526-.387.357-.585.823-.585 1.388v17.703c0 .605.188 1.09.545 1.448.357.347.862.525 1.486.525.625 0 1.12-.178 1.497-.525.376-.357.565-.843.565-1.448v-6.585c0-1.071.307-1.924.911-2.56.595-.624 1.417-.941 2.418-.941.843 0 1.467.218 1.853.654.387.447.585 1.17.585 2.162v7.28c0 .605.188 1.09.565 1.448.366.347.872.525 1.496.525s1.12-.178 1.487-.525c.366-.357.545-.833.545-1.448v-7.28c-.02-4.076-1.794-6.148-5.302-6.148zM96.608 25.051c-.347-.565-.912-1.031-1.695-1.408-.763-.357-1.813-.684-3.151-.962-1.219-.248-2.041-.506-2.458-.744-.376-.218-.554-.535-.554-.952 0-.446.178-.793.554-1.051.387-.268.932-.407 1.616-.407.584 0 1.08.07 1.476.209.406.138.892.366 1.447.654.317.179.585.317.803.407.228.099.465.148.713.148.377 0 .694-.158.951-.476.248-.297.367-.674.367-1.11 0-.724-.347-1.3-1.04-1.736a7.61 7.61 0 0 0-2.121-.932 9.52 9.52 0 0 0-2.448-.317c-1.169 0-2.22.198-3.141.595-.922.396-1.665.962-2.2 1.695a4.09 4.09 0 0 0-.803 2.47c0 1.2.407 2.152 1.21 2.846.782.675 2.08 1.19 3.854 1.547.971.218 1.705.407 2.18.575.446.16.763.328.932.496.148.159.228.377.228.665 0 .426-.198.744-.595.982-.426.257-1.05.386-1.833.386-.783 0-1.437-.079-1.942-.228a13.142 13.142 0 0 1-1.695-.664c-.624-.337-1.11-.496-1.486-.496-.377 0-.694.149-.942.436-.247.278-.376.645-.376 1.091 0 .764.347 1.359 1.04 1.766 1.348.862 3.132 1.299 5.312 1.299 1.882 0 3.418-.417 4.568-1.25 1.16-.843 1.754-1.983 1.754-3.382 0-.863-.178-1.586-.525-2.152zM107.696 28.631l-.802-.06c-1.229-.088-1.833-.792-1.833-2.141v-6.526h2.318c.575 0 1.031-.139 1.348-.397.327-.277.496-.674.496-1.19 0-.515-.169-.912-.496-1.19-.317-.267-.773-.396-1.348-.396h-2.318V14.2c0-.584-.189-1.06-.565-1.418-.367-.347-.862-.525-1.467-.525-.624 0-1.12.178-1.496.525-.377.357-.565.834-.565 1.419v2.529H99.69c-.575 0-1.031.138-1.348.396-.327.278-.496.675-.496 1.19 0 .516.169.913.496 1.19.317.268.773.397 1.348.397h1.278v6.258c0 3.421 1.734 5.276 5.153 5.524l.803.06c.099.01.198.01.287.01.614 0 1.11-.12 1.467-.348.445-.287.663-.704.663-1.25.01-.654-.277-1.447-1.645-1.527z"/><path d="M122.363 17.93c-1.011-1.03-2.567-1.556-4.618-1.556-.942 0-1.903.109-2.864.327-.971.218-1.814.525-2.517.902-.416.228-.724.486-.912.754a1.71 1.71 0 0 0-.287.982c0 .466.129.843.386 1.14.268.298.605.447 1.02.447.269 0 .665-.13 1.2-.397.803-.308 1.496-.555 2.081-.714a6.37 6.37 0 0 1 1.695-.248c.862 0 1.496.198 1.863.605.376.407.564 1.071.564 1.983v.486h-.545c-2.15 0-3.864.14-5.103.417-1.259.287-2.18.754-2.755 1.388-.575.645-.862 1.537-.862 2.648 0 .883.238 1.696.713 2.42a4.84 4.84 0 0 0 1.943 1.696c.812.407 1.724.615 2.715.615.981 0 1.853-.228 2.596-.685a4.182 4.182 0 0 0 1.288-1.21c.02.516.209.943.545 1.28.357.347.833.526 1.398.526.604 0 1.09-.17 1.437-.516.356-.347.535-.813.535-1.399v-7.21c.01-2.072-.506-3.649-1.516-4.68zm-2.389 7.072v.426c0 .992-.297 1.805-.882 2.43-.584.625-1.327.932-2.269.932-.604 0-1.1-.178-1.506-.555-.406-.367-.605-.833-.605-1.409 0-.456.14-.813.417-1.07.287-.268.773-.457 1.466-.576.714-.119 1.744-.178 3.042-.178h.337z" fill-rule="nonzero"/><path d="M140.437 28.383l-4.984-4.472 4.489-4.175c.406-.407.614-.873.614-1.379s-.188-.952-.564-1.319c-.377-.377-.813-.565-1.318-.565-.506 0-.962.198-1.348.585l-5.995 5.752V12.139c0-.635-.199-1.12-.605-1.448-.386-.327-.882-.486-1.457-.486-.574 0-1.06.169-1.446.486-.387.337-.585.823-.585 1.448v17.673c0 .624.198 1.12.585 1.448.376.327.862.495 1.446.495.575 0 1.07-.168 1.457-.486.397-.337.605-.823.605-1.448V25.2l6.59 5.97c.406.387.862.585 1.347.585.486 0 .922-.198 1.278-.595a1.94 1.94 0 0 0 .536-1.348c.01-.536-.209-1.012-.645-1.429z"/><path d="M154.826 27.243c-.307 0-.763.159-1.377.486-.605.268-1.15.486-1.626.645-.455.148-1 .228-1.605.228-1.18 0-2.09-.308-2.705-.903-.575-.575-.942-1.468-1.07-2.668h8.512c.604 0 1.318-.257 1.318-1.467 0-1.448-.278-2.718-.823-3.789a6.102 6.102 0 0 0-2.318-2.509c-.991-.585-2.17-.883-3.499-.883-1.387 0-2.655.328-3.755.972a6.633 6.633 0 0 0-2.577 2.747c-.604 1.17-.911 2.52-.911 4.027 0 2.37.703 4.274 2.1 5.643 1.388 1.368 3.3 2.073 5.669 2.073.783 0 1.615-.12 2.477-.347.862-.229 1.645-.536 2.319-.923.793-.446 1.189-1.021 1.189-1.706 0-.476-.119-.872-.357-1.16-.238-.317-.565-.466-.96-.466zm-2.12-4.592h-6.263c.138-1.031.465-1.834 1-2.39.565-.585 1.328-.882 2.27-.882.931 0 1.645.287 2.16.862.486.546.763 1.359.832 2.41z" fill-rule="nonzero"/><path d="M163.893 21.5a2.478 2.478 0 0 1 2.17 2.758 2.477 2.477 0 0 1-2.754 2.172 2.486 2.486 0 0 1-2.19-2.47 2.49 2.49 0 0 1 2.487-2.489c.09.02.188.02.287.03z"/></g></g></svg>